<svg id="Capa_1" enable-background="new 0 0 512.006 512.006" height="512" viewBox="0 0 512.006 512.006" width="512" xmlns="http://www.w3.org/2000/svg"><g id="XMLID_1869_"><g id="XMLID_328_"><path id="XMLID_340_" d="m483.349 273.835c-16.69-16.85-38.4-26.979-61.786-28.971-17.446-54.748-68.462-92.371-126.557-92.371-24.824 0-48.353 6.874-68.525 19.014-6.51-13.675-16.346-25.796-28.524-34.911-16.26-12.17-35.617-18.603-55.979-18.603-51.556 0-93.5 41.944-93.5 93.5 0 32.522 17.031 62.549 44.222 79.455-9.582 15.238-15.133 33.254-15.133 52.545 0 54.589 44.411 99 99 99h73.22c5.522 0 10-4.477 10-10s-4.478-10-10-10h-73.22c-43.561 0-79-35.439-79-79s35.439-79 79-79 79 35.439 79 79c0 5.523 4.478 10 10 10s10-4.477 10-10c0-50.212-37.577-91.81-86.086-98.158 16.411-43.433 58.191-72.842 105.525-72.842 51.467 0 96.393 34.753 109.251 84.514 1.131 4.377 5.058 7.451 9.579 7.498 43.103.443 78.17 35.877 78.17 78.988 0 43.561-35.439 79-79 79h-73.22c-5.522 0-10 4.477-10 10s4.478 10 10 10h73.22c54.589 0 99-44.411 99-99 0-26.262-10.178-51.001-28.657-69.658zm-314.88-29.008c-24.833 2.02-47.102 13.24-63.384 30.243-22.448-13.059-36.608-37.281-36.608-63.576 0-40.528 32.972-73.5 73.5-73.5 30.124 0 56.618 17.956 67.906 45.32-18.972 15.815-33.574 36.938-41.414 61.513z"/><path id="XMLID_341_" d="m9.99 201.492c-2.631 0-5.211 1.07-7.07 2.93-1.86 1.86-2.92 4.44-2.92 7.07 0 2.64 1.06 5.21 2.92 7.07 1.859 1.86 4.439 2.93 7.07 2.93 2.64 0 5.21-1.07 7.069-2.93 1.87-1.86 2.931-4.44 2.931-7.07s-1.061-5.21-2.931-7.07c-1.859-1.86-4.429-2.93-7.069-2.93z"/><path id="XMLID_342_" d="m141.979 89.512c2.63 0 5.21-1.07 7.07-2.93s2.93-4.44 2.93-7.07-1.069-5.21-2.93-7.07c-1.86-1.86-4.44-2.93-7.07-2.93-2.64 0-5.21 1.07-7.069 2.93-1.86 1.86-2.931 4.44-2.931 7.07s1.07 5.21 2.931 7.07c1.86 1.86 4.43 2.93 7.069 2.93z"/><path id="XMLID_343_" d="m48.649 294.822c-2.63 0-5.21 1.07-7.069 2.93-1.86 1.86-2.931 4.44-2.931 7.07s1.07 5.21 2.931 7.07c1.859 1.86 4.439 2.93 7.069 2.93s5.21-1.07 7.07-2.93 2.93-4.44 2.93-7.07-1.069-5.21-2.93-7.07c-1.86-1.86-4.44-2.93-7.07-2.93z"/><path id="XMLID_344_" d="m235.31 128.172c2.63 0 5.2-1.07 7.061-2.93 1.87-1.87 2.939-4.44 2.939-7.07 0-2.64-1.069-5.21-2.939-7.08-1.86-1.86-4.431-2.92-7.061-2.92-2.64 0-5.21 1.06-7.069 2.92-1.87 1.86-2.931 4.44-2.931 7.08 0 2.63 1.061 5.21 2.931 7.07 1.859 1.86 4.429 2.93 7.069 2.93z"/><path id="XMLID_345_" d="m48.649 128.172c2.63 0 5.21-1.07 7.07-2.93 1.86-1.87 2.93-4.44 2.93-7.07 0-2.64-1.069-5.21-2.93-7.08-1.86-1.86-4.44-2.92-7.07-2.92s-5.21 1.06-7.069 2.92c-1.86 1.86-2.931 4.44-2.931 7.08 0 2.63 1.07 5.2 2.931 7.07 1.859 1.86 4.44 2.93 7.069 2.93z"/><path id="XMLID_346_" d="m295.01 422.492c-2.64 0-5.21 1.07-7.07 2.93-1.87 1.86-2.93 4.44-2.93 7.07 0 2.64 1.06 5.21 2.93 7.07 1.86 1.86 4.431 2.93 7.07 2.93 2.63 0 5.21-1.07 7.07-2.93 1.859-1.86 2.93-4.44 2.93-7.07s-1.07-5.21-2.93-7.07-4.44-2.93-7.07-2.93z"/></g></g></svg>